v 0 848 0
vn 0 1 0
v 0 830 46
vn -7.15784e-16 0.931243 0.364399
f 1//1 2//2 3//3
v 32.5269 830 32.5269
vn 0.257669 0.931243 0.257669

f 1//1 3//3 4//4
v 46 830 7.43151e-14
vn 0.364399 0.931243 5.75434e-16

f 1//1 4//4 5//5
v 32.5269 830 -32.5269
vn 0.257669 0.931243 -0.257669

f 1//1 5//5 6//6
v 1.4863e-13 830 -46
vn 1.1649e-15 0.931243 -0.364399
f 1//1 6//6 7//7
v -32.5269 830 -32.5269
vn -0.257669 0.931243 -0.257669
f 1//1 7//7 8//8
v -46 830 -2.12731e-13
vn -0.364399 0.931243 -1.71227e-15
f 1//1 8//8 9//9
v -32.5269 830 32.5269
vn -0.257669 0.931243 0.257669
f 1//1 9//9 2//2
vn -1.64846e-15 -0.178885 0.98387
vn 0.695701 -0.178885 0.695701
vn 0.98387 -0.178885 1.4986e-15
vn 0.695701 -0.178885 -0.695701
vn 3.14705e-15 -0.178885 -0.98387
vn -0.695701 -0.178885 -0.695701
vn -0.98387 -0.178885 -4.55574e-15
vn -0.695701 -0.178885 0.695701
v 0 797 40
vn -1.55854e-15 -0.178885 0.98387
f 10//18 2//10 9//17 17//25
v 28.2843 797 28.2843
vn 0.695701 -0.178885 0.695701
f 11//19 3//11 2//10 10//18
v 40 797 6.46218e-14
vn 0.98387 -0.178885 1.52857e-15
f 12//20 4//12 3//11 11//19
v 28.2843 797 -28.2843
vn 0.695701 -0.178885 -0.695701
f 13//21 5//13 4//12 12//20
v 1.29244e-13 797 -40
vn 3.08711e-15 -0.178885 -0.98387
f 14//22 6//14 5//13 13//21
v -28.2843 797 -28.2843
vn -0.695701 -0.178885 -0.695701
f 15//23 7//15 6//14 14//22
v -40 797 -1.84984e-13
vn -0.98387 -0.178885 -4.67562e-15
f 16//24 8//16 7//15 15//23
v -28.2843 797 28.2843
vn -0.695701 -0.178885 0.695701
f 17//25 9//17 8//16 16//24
vn -1.50803e-15 0.461934 0.886914
vn 0.627143 0.461934 0.627143
vn 0.886914 0.461934 1.41933e-15
vn 0.627143 0.461934 -0.627143
vn 2.86822e-15 0.461934 -0.886914
vn -0.627143 0.461934 -0.627143
vn -0.886914 0.461934 -4.22841e-15
vn -0.627143 0.461934 0.627143
v 0 749 65
vn -1.39835e-15 0.446601 0.894733
f 18//34 10//26 17//33 25//41
v 45.9619 749 45.9619
vn 0.632672 0.446601 0.632672
f 19//35 11//27 10//26 18//34
v 65 749 1.0501e-13
vn 0.894733 0.446601 1.41675e-15
f 20//36 12//28 11//27 19//35
v 45.9619 749 -45.9619
vn 0.632672 0.446601 -0.632672
f 21//37 13//29 12//28 20//36
v 2.10021e-13 749 -65
vn 2.92549e-15 0.446601 -0.894733
f 22//38 14//30 13//29 21//37
v -45.9619 749 -45.9619
vn -0.632672 0.446601 -0.632672
f 23//39 15//31 14//30 22//38
v -65 749 -3.00598e-13
vn -0.894733 0.446601 -4.21344e-15
f 24//40 16//32 15//31 23//39
v -45.9619 749 45.9619
vn -0.632672 0.446601 0.632672
f 25//41 17//33 16//32 24//40
v 0 701 88
vn -1.56015e-15 0.374886 0.927071
f 26//42 18//34 25//41 33//49
v 62.2254 701 62.2254
vn 0.655538 0.374886 0.655538
f 27//43 19//35 18//34 26//42
v 88 701 1.42168e-13
vn 0.927071 0.374886 1.49081e-15
f 28//44 20//36 19//35 27//43
v 62.2254 701 -62.2254
vn 0.655538 0.374886 -0.655538
f 29//45 21//37 20//36 28//44
v 2.84336e-13 701 -88
vn 3.05096e-15 0.374886 -0.927071
f 30//46 22//38 21//37 29//45
v -62.2254 701 -62.2254
vn -0.655538 0.374886 -0.655538
f 31//47 23//39 22//38 30//46
v -88 701 -4.06964e-13
vn -0.927071 0.374886 -4.38576e-15
f 32//48 24//40 23//39 31//47
v -62.2254 701 62.2254
vn -0.655538 0.374886 0.655538
f 33//49 25//41 24//40 32//48
v 0 660 100
vn -1.53996e-15 0.164097 0.986444
f 34//50 26//42 33//49 41//57
v 70.7107 660 70.7107
vn 0.697521 0.164097 0.697521
f 35//51 27//43 26//42 34//50
v 100 660 1.61554e-13
vn 0.986444 0.164097 1.50415e-15
f 36//52 28//44 27//43 35//51
v 70.7107 660 -70.7107
vn 0.697521 0.164097 -0.697521
f 37//53 29//45 28//44 36//52
v 3.23109e-13 660 -100
vn 3.18737e-15 0.164097 -0.986444
f 38//54 30//46 29//45 37//53
v -70.7107 660 -70.7107
vn -0.697521 0.164097 -0.697521
f 39//55 31//47 30//46 38//54
v -100 660 -4.62459e-13
vn -0.986444 0.164097 -4.76314e-15
f 40//56 32//48 31//47 39//55
v -70.7107 660 70.7107
vn -0.697521 0.164097 0.697521
f 41//57 33//49 32//48 40//56
v 0 628 96
vn -1.62131e-15 -0.215828 0.976431
f 42//58 34//50 41//57 49//65
v 67.8823 628 67.8823
vn 0.690441 -0.215828 0.690441
f 43//59 35//51 34//50 42//58
v 96 628 1.55092e-13
vn 0.976431 -0.215828 1.53223e-15
f 44//60 36//52 35//51 43//59
v 67.8823 628 -67.8823
vn 0.690441 -0.215828 -0.690441
f 45//61 37//53 36//52 44//60
v 3.10185e-13 628 -96
vn 3.18918e-15 -0.215828 -0.976431
f 46//62 38//54 37//53 45//61
v -67.8823 628 -67.8823
vn -0.690441 -0.215828 -0.690441
f 47//63 39//55 38//54 46//62
v -96 628 -4.43961e-13
vn -0.976431 -0.215828 -4.57888e-15
f 48//64 40//56 39//55 47//63
v -67.8823 628 67.8823
vn -0.690441 -0.215828 0.690441
f 49//65 41//57 40//56 48//64
v 0 596 82
vn -1.44235e-15 -0.464091 0.885788
f 50//66 42//58 49//65 57//73
v 57.9828 596 57.9828
vn 0.626346 -0.464091 0.626346
f 51//67 43//59 42//58 50//66
v 82 596 1.32475e-13
vn 0.885788 -0.464091 1.40172e-15
f 52//68 44//60 43//59 51//67
v 57.9828 596 -57.9828
vn 0.626346 -0.464091 -0.626346
f 53//69 45//61 44//60 52//68
v 2.64949e-13 596 -82
vn 2.88471e-15 -0.464091 -0.885788
f 54//70 46//62 45//61 53//69
v -57.9828 596 -57.9828
vn -0.626346 -0.464091 -0.626346
f 55//71 47//63 46//62 54//70
v -82 596 -3.79216e-13
vn -0.885788 -0.464091 -4.2458e-15
f 56//72 48//64 47//63 55//71
v -57.9828 596 57.9828
vn -0.626346 -0.464091 0.626346
f 57//73 49//65 48//64 56//72
v 0 571 64
vn -1.45505e-15 -0.503253 0.864139
f 58//74 50//66 57//73 65//81
v 45.2548 571 45.2548
vn 0.611039 -0.503253 0.611039
f 59//75 51//67 50//66 58//74
v 64 571 1.03395e-13
vn 0.864139 -0.503253 1.39133e-15
f 60//76 52//68 51//67 59//75
v 45.2548 571 -45.2548
vn 0.611039 -0.503253 -0.611039
f 61//77 53//69 52//68 60//76
v 2.0679e-13 571 -64
vn 2.79327e-15 -0.503253 -0.864139
f 62//78 54//70 53//69 61//77
v -45.2548 571 -45.2548
vn -0.611039 -0.503253 -0.611039
f 63//79 55//71 54//70 62//78
v -64 571 -2.95974e-13
vn -0.864139 -0.503253 -4.12087e-15
f 64//80 56//72 55//71 63//79
v -45.2548 571 45.2548
vn -0.611039 -0.503253 0.611039
f 65//81 57//73 56//72 64//80
v 0 534 48
vn -1.59655e-15 -0.176484 0.984304
f 66//82 58//74 65//81 73//89
v 33.9411 534 33.9411
vn 0.696008 -0.176484 0.696008
f 67//83 59//75 58//74 66//82
v 48 534 7.75461e-14
vn 0.984304 -0.176484 1.51672e-15
f 68//84 60//76 59//75 67//83
v 33.9411 534 -33.9411
vn 0.696008 -0.176484 -0.696008
f 69//85 61//77 60//76 68//84
v 1.55092e-13 534 -48
vn 3.23301e-15 -0.176484 -0.984304
f 70//86 62//78 61//77 69//85
v -33.9411 534 -33.9411
vn -0.696008 -0.176484 -0.696008
f 71//87 63//79 62//78 70//86
v -48 534 -2.2198e-13
vn -0.984304 -0.176484 -4.60337e-15
f 72//88 64//80 63//79 71//87
v -33.9411 534 33.9411
vn -0.696008 -0.176484 0.696008
f 73//89 65//81 64//80 72//88
v 0 497 50
vn -1.56187e-15 0.0539753 0.998542
f 74//90 66//82 73//89 81//97
v 35.3553 497 35.3553
vn 0.706076 0.0539753 0.706076
f 75//91 67//83 66//82 74//90
v 50 497 8.07772e-14
vn 0.998542 0.0539753 1.59191e-15
f 76//92 68//84 67//83 75//91
v 35.3553 497 -35.3553
vn 0.706076 0.0539753 -0.706076
f 77//93 69//85 68//84 76//92
v 1.61554e-13 497 -50
vn 3.24389e-15 0.0539753 -0.998542
f 78//94 70//86 69//85 77//93
v -35.3553 497 -35.3553
vn -0.706076 0.0539753 -0.706076
f 79//95 71//87 70//86 78//94
v -50 497 -2.31229e-13
vn -0.998542 0.0539753 -4.8358e-15
f 80//96 72//88 71//87 79//95
v -35.3553 497 35.3553
vn -0.706076 0.0539753 0.706076
f 81//97 73//89 72//88 80//96
vn -7.31957e-16 0.91227 0.40959
vn 0.289624 0.91227 0.289624
vn 0.40959 0.91227 6.47501e-16
vn 0.289624 0.91227 -0.289624
vn 1.33723e-15 0.91227 -0.40959
vn -0.289624 0.91227 -0.289624
vn -0.40959 0.91227 -2.01288e-15
vn -0.289624 0.91227 0.289624
v 0 475 99
vn -8.56686e-16 0.864785 0.502142
f 82//106 74//98 81//105 89//113
v 70.0036 475 70.0036
vn 0.355068 0.864785 0.355068
f 83//107 75//99 74//98 82//106
v 99 475 1.59939e-13
vn 0.502142 0.864785 7.83255e-16
f 84//108 76//100 75//99 83//107
v 70.0036 475 -70.0036
vn 0.355068 0.864785 -0.355068
f 85//109 77//101 76//100 84//108
v 3.19878e-13 475 -99
vn 1.67258e-15 0.864785 -0.502142
f 86//110 78//102 77//101 85//109
v -70.0036 475 -70.0036
vn -0.355068 0.864785 -0.355068
f 87//111 79//103 78//102 86//110
v -99 475 -4.57834e-13
vn -0.502142 0.864785 -2.3824e-15
f 88//112 80//104 79//103 87//111
v -70.0036 475 70.0036
vn -0.355068 0.864785 0.355068
f 89//113 81//105 80//104 88//112
v 0 450 126
vn -1.21102e-15 0.733761 0.679408
f 90//114 82//106 89//113 97//121
v 89.0955 450 89.0955
vn 0.480414 0.733761 0.480414
f 91//115 83//107 82//106 90//114
v 126 450 2.03559e-13
vn 0.679408 0.733761 1.03801e-15
f 92//116 84//108 83//107 91//115
v 89.0955 450 -89.0955
vn 0.480414 0.733761 -0.480414
f 93//117 85//109 84//108 92//116
v 4.07117e-13 450 -126
vn 2.16253e-15 0.733761 -0.679408
f 94//118 86//110 85//109 93//117
v -89.0955 450 -89.0955
vn -0.480414 0.733761 -0.480414
f 95//119 87//111 86//110 94//118
v -126 450 -5.82698e-13
vn -0.679408 0.733761 -3.22938e-15
f 96//120 88//112 87//111 95//119
v -89.0955 450 89.0955
vn -0.480414 0.733761 0.480414
f 97//121 89//113 88//112 96//120
vn -1.33238e-15 -0.693642 0.72032
vn 0.509343 -0.693642 0.509343
vn 0.72032 -0.693642 1.12962e-15
vn 0.509343 -0.693642 -0.509343
vn 2.28821e-15 -0.693642 -0.72032
vn -0.509343 -0.693642 -0.509343
vn -0.72032 -0.693642 -3.41783e-15
vn -0.509343 -0.693642 0.509343
v 0 423 100
vn -1.09515e-15 -0.779459 0.626453
f 98//130 90//122 97//129 105//137
v 70.7107 423 70.7107
vn 0.442969 -0.779459 0.442969
f 99//131 91//123 90//122 98//130
v 100 423 1.61554e-13
vn 0.626453 -0.779459 9.56527e-16
f 100//132 92//124 91//123 99//131
v 70.7107 423 -70.7107
vn 0.442969 -0.779459 -0.442969
f 101//133 93//125 92//124 100//132
v 3.23109e-13 423 -100
vn 2.01009e-15 -0.779459 -0.626453
f 102//134 94//126 93//125 101//133
v -70.7107 423 -70.7107
vn -0.442969 -0.779459 -0.442969
f 103//135 95//127 94//126 102//134
v -100 423 -4.62459e-13
vn -0.626453 -0.779459 -3.03593e-15
f 104//136 96//128 95//127 103//135
v -70.7107 423 70.7107
vn -0.442969 -0.779459 0.442969
f 105//137 97//129 96//128 104//136
v 0 395 50
vn -8.77868e-16 -0.872506 0.488603
f 106//138 98//130 105//137 113//145
v 35.3553 395 35.3553
vn 0.345495 -0.872506 0.345495
f 107//139 99//131 98//130 106//138
v 50 395 8.07772e-14
vn 0.488603 -0.872506 7.64594e-16
f 108//140 100//132 99//131 107//139
v 35.3553 395 -35.3553
vn 0.345495 -0.872506 -0.345495
f 109//141 101//133 100//132 108//140
v 1.61554e-13 395 -50
vn 1.57167e-15 -0.872506 -0.488603
f 110//142 102//134 101//133 109//141
v -35.3553 395 -35.3553
vn -0.345495 -0.872506 -0.345495
f 111//143 103//135 102//134 110//142
v -50 395 -2.31229e-13
vn -0.488603 -0.872506 -2.3929e-15
f 112//144 104//136 103//135 111//143
v -35.3553 395 35.3553
vn -0.345495 -0.872506 0.345495
f 113//145 105//137 104//136 112//144
vn -1.53114e-15 0.0957124 0.995409
vn 0.70386 0.0957124 0.70386
vn 0.995409 0.0957124 1.56116e-15
vn 0.70386 0.0957124 -0.70386
vn 3.2424e-15 0.0957124 -0.995409
vn -0.70386 0.0957124 -0.70386
vn -0.995409 0.0957124 -4.74352e-15
vn -0.70386 0.0957124 0.70386
v 0 343 55
vn -1.62909e-15 0.0876332 0.996153
f 114//154 106//146 113//153 121//161
v 38.8909 343 38.8909
vn 0.704386 0.0876332 0.704386
f 115//155 107//147 106//146 114//154
v 55 343 8.8855e-14
vn 0.996153 0.0876332 1.62909e-15
f 116//156 108//148 107//147 115//155
v 38.8909 343 -38.8909
vn 0.704386 0.0876332 -0.704386
f 117//157 109//149 108//148 116//156
v 1.7771e-13 343 -55
vn 3.3061e-15 0.0876332 -0.996153
f 118//158 110//150 109//149 117//157
v -38.8909 343 -38.8909
vn -0.704386 0.0876332 -0.704386
f 119//159 111//151 110//150 118//158
v -55 343 -2.54352e-13
vn -0.996153 0.0876332 -4.69562e-15
f 120//160 112//152 111//151 119//159
v -38.8909 343 38.8909
vn -0.704386 0.0876332 0.704386
f 121//161 113//153 112//152 120//160
v 0 305 58
vn -1.58132e-15 0.11982 0.992796
f 122//162 114//154 121//161 129//169
v 41.0122 305 41.0122
vn 0.702013 0.11982 0.702013
f 123//163 115//155 114//154 122//162
v 58 305 9.37016e-14
vn 0.992796 0.11982 1.5613e-15
f 124//164 116//156 115//155 123//163
v 41.0122 305 -41.0122
vn 0.702013 0.11982 -0.702013
f 125//165 117//157 116//156 124//164
v 1.87403e-13 305 -58
vn 3.1226e-15 0.11982 -0.992796
f 126//166 118//158 117//157 125//165
v -41.0122 305 -41.0122
vn -0.702013 0.11982 -0.702013
f 127//167 119//159 118//158 126//166
v -58 305 -2.68226e-13
vn -0.992796 0.11982 -4.76397e-15
f 128//168 120//160 119//159 127//167
v -41.0122 305 41.0122
vn -0.702013 0.11982 0.702013
f 129//169 121//161 120//160 128//168
v 0 254 66
vn -1.57221e-15 0.215387 0.976529
f 130//170 122//162 129//169 137//177
v 46.669 254 46.669
vn 0.69051 0.215387 0.69051
f 131//171 123//163 122//162 130//170
v 66 254 1.06626e-13
vn 0.976529 0.215387 1.57221e-15
f 132//172 124//164 123//163 131//171
v 46.669 254 -46.669
vn 0.69051 0.215387 -0.69051
f 133//173 125//165 124//164 132//172
v 2.13252e-13 254 -66
vn 3.16753e-15 0.215387 -0.976529
f 134//174 126//166 125//165 133//173
v -46.669 254 -46.669
vn -0.69051 0.215387 -0.69051
f 135//175 127//167 126//166 134//174
v -66 254 -3.05223e-13
vn -0.976529 0.215387 -4.57789e-15
f 136//176 128//168 127//167 135//175
v -46.669 254 46.669
vn -0.69051 0.215387 0.69051
f 137//177 129//169 128//168 136//176
v 0 223 76
vn -1.46635e-15 0.354878 0.934912
f 138//178 130//170 137//177 145//185
v 53.7401 223 53.7401
vn 0.661083 0.354878 0.661083
f 139//179 131//171 130//170 138//178
v 76 223 1.22781e-13
vn 0.934912 0.354878 1.51012e-15
f 140//180 132//172 131//171 139//179
v 53.7401 223 -53.7401
vn 0.661083 0.354878 -0.661083
f 141//181 133//173 132//172 140//180
v 2.45563e-13 223 -76
vn 2.99835e-15 0.354878 -0.934912
f 142//182 134//174 133//173 141//181
v -53.7401 223 -53.7401
vn -0.661083 0.354878 -0.661083
f 143//183 135//175 134//174 142//182
v -76 223 -3.51469e-13
vn -0.934912 0.354878 -4.42092e-15
f 144//184 136//176 135//175 143//183
v -53.7401 223 53.7401
vn -0.661083 0.354878 0.661083
f 145//185 137//177 136//176 144//184
v 0 197 89
vn -1.47006e-15 0.489127 0.872213
f 146//186 138//178 145//185 153//193
v 62.9325 197 62.9325
vn 0.616747 0.489127 0.616747
f 147//187 139//179 138//178 146//186
v 89 197 1.43783e-13
vn 0.872213 0.489127 1.39059e-15
f 148//188 140//180 139//179 147//187
v 62.9325 197 -62.9325
vn 0.616747 0.489127 -0.616747
f 149//189 141//181 140//180 148//188
v 2.87567e-13 197 -89
vn 2.84078e-15 0.489127 -0.872213
f 150//190 142//182 141//181 149//189
v -62.9325 197 -62.9325
vn -0.616747 0.489127 -0.616747
f 151//191 143//183 142//182 150//190
v -89 197 -4.11588e-13
vn -0.872213 0.489127 -4.15191e-15
f 152//192 144//184 143//183 151//191
v -62.9325 197 62.9325
vn -0.616747 0.489127 0.616747
f 153//193 145//185 144//184 152//192
v 0 175 105
vn -1.28795e-15 0.588172 0.808736
f 154//194 146//186 153//193 161//201
v 74.2462 175 74.2462
vn 0.571863 0.588172 0.571863
f 155//195 147//187 146//186 154//194
v 105 175 1.69632e-13
vn 0.808736 0.588172 1.34649e-15
f 156//196 148//188 147//187 155//195
v 74.2462 175 -74.2462
vn 0.571863 0.588172 -0.571863
f 157//197 149//189 148//188 156//196
v 3.39264e-13 175 -105
vn 2.57589e-15 0.588172 -0.808736
f 158//198 150//190 149//189 157//197
v -74.2462 175 -74.2462
vn -0.571863 0.588172 -0.571863
f 159//199 151//191 150//190 158//198
v -105 175 -4.85582e-13
vn -0.808736 0.588172 -3.86384e-15
f 160//200 152//192 151//191 159//199
v -74.2462 175 74.2462
vn -0.571863 0.588172 0.571863
f 161//201 153//193 152//192 160//200
vn -4.25216e-16 0.972806 0.231621
vn 0.16378 0.972806 0.16378
vn 0.231621 0.972806 3.83392e-16
vn 0.16378 0.972806 -0.16378
vn 7.389e-16 0.972806 -0.231621
vn -0.16378 0.972806 -0.16378
vn -0.231621 0.972806 -1.12229e-15
vn -0.16378 0.972806 0.16378
v 0 170 126
vn -4.53099e-16 0.972806 0.231621
f 162//210 154//202 161//209 169//217
v 89.0955 170 89.0955
vn 0.16378 0.972806 0.16378
f 163//211 155//203 154//202 162//210
v 126 170 2.03559e-13
vn 0.231621 0.972806 3.55509e-16
f 164//212 156//204 155//203 163//211
v 89.0955 170 -89.0955
vn 0.16378 0.972806 -0.16378
f 165//213 157//205 156//204 164//212
v 4.07117e-13 170 -126
vn 7.389e-16 0.972806 -0.231621
f 166//214 158//206 157//205 165//213
v -89.0955 170 -89.0955
vn -0.16378 0.972806 -0.16378
f 167//215 159//207 158//206 166//214
v -126 170 -5.82698e-13
vn -0.231621 0.972806 -1.10835e-15
f 168//216 160//208 159//207 167//215
v -89.0955 170 89.0955
vn -0.16378 0.972806 0.16378
f 169//217 161//209 160//208 168//216
vn -1.68213e-15 -0.0444006 0.999014
vn 0.706409 -0.0444006 0.706409
vn 0.999014 -0.0444006 1.59202e-15
vn 0.706409 -0.0444006 -0.706409
vn 3.27415e-15 -0.0444006 -0.999014
vn -0.706409 -0.0444006 -0.706409
vn -0.999014 -0.0444006 -4.74602e-15
vn -0.706409 -0.0444006 0.706409
v 0 125 124
vn -1.59202e-15 -0.0444006 0.999014
f 170//226 162//218 169//225 177//233
v 87.6812 125 87.6812
vn 0.706409 -0.0444006 0.706409
f 171//227 163//219 162//218 170//226
v 124 125 2.00328e-13
vn 0.999014 -0.0444006 1.59202e-15
f 172//228 164//220 163//219 171//227
v 87.6812 125 -87.6812
vn 0.706409 -0.0444006 -0.706409
f 173//229 165//221 164//220 172//228
v 4.00655e-13 125 -124
vn 3.24411e-15 -0.0444006 -0.999014
f 174//230 166//222 165//221 173//229
v -87.6812 125 -87.6812
vn -0.706409 -0.0444006 -0.706409
f 175//231 167//223 166//222 174//230
v -124 125 -5.73449e-13
vn -0.999014 -0.0444006 -4.71598e-15
f 176//232 168//224 167//223 175//231
v -87.6812 125 87.6812
vn -0.706409 -0.0444006 0.706409
f 177//233 169//225 168//224 176//232
vn -1.08918e-15 0.782823 0.622244
vn 0.439993 0.782823 0.439993
vn 0.622244 0.782823 1.00319e-15
vn 0.439993 0.782823 -0.439993
vn 2.00639e-15 0.782823 -0.622244
vn -0.439993 0.782823 -0.439993
vn -0.622244 0.782823 -2.93792e-15
vn -0.439993 0.782823 0.439993
v 0 94 163
vn -1.18417e-15 0.714323 0.699816
f 178//242 170//234 177//241 185//249
v 115.258 94 115.258
vn 0.494845 0.714323 0.494845
f 179//243 171//235 170//234 178//242
v 163 94 2.63334e-13
vn 0.699816 0.714323 1.16302e-15
f 180//244 172//236 171//235 179//243
v 115.258 94 -115.258
vn 0.494845 0.714323 -0.494845
f 181//245 173//237 172//236 180//244
v 5.26668e-13 94 -163
vn 2.26261e-15 0.714323 -0.699816
f 182//246 174//238 173//237 181//245
v -115.258 94 -115.258
vn -0.494845 0.714323 -0.494845
f 183//247 175//239 174//238 182//246
v -163 94 -7.53808e-13
vn -0.699816 0.714323 -3.33048e-15
f 184//248 176//240 175//239 183//247
v -115.258 94 115.258
vn -0.494845 0.714323 0.494845
f 185//249 177//241 176//240 184//248
v 0 49 190
vn -1.47272e-15 0.514496 0.857493
f 186//250 178//242 185//249 193//257
v 134.35 49 134.35
vn 0.606339 0.514496 0.606339
f 187//251 179//243 178//242 186//250
v 190 49 3.06953e-13
vn 0.857493 0.514496 1.41381e-15
f 188//252 180//244 179//243 187//251
v 134.35 49 -134.35
vn 0.606339 0.514496 -0.606339
f 189//253 181//245 180//244 188//252
v 6.13907e-13 49 -190
vn 2.76871e-15 0.514496 -0.857493
f 190//254 182//246 181//245 189//253
v -134.35 49 -134.35
vn -0.606339 0.514496 -0.606339
f 191//255 183//247 182//246 190//254
v -190 49 -8.78672e-13
vn -0.857493 0.514496 -4.0647e-15
f 192//256 184//248 183//247 191//255
v -134.35 49 134.35
vn -0.606339 0.514496 0.606339
f 193//257 185//249 184//248 192//256
vn -1.40144e-15 -0.615644 0.788024
vn 0.557217 -0.615644 0.557217
vn 0.788024 -0.615644 1.25546e-15
vn 0.557217 -0.615644 -0.557217
vn 2.54012e-15 -0.615644 -0.788024
vn -0.557217 -0.615644 -0.557217
vn -0.788024 -0.615644 -3.76638e-15
vn -0.557217 -0.615644 0.557217
v 0 17 165
vn -1.34305e-15 -0.615644 0.788024
f 194//266 186//258 193//265 201//273
v 116.673 17 116.673
vn 0.557217 -0.615644 0.557217
f 195//267 187//259 186//258 194//266
v 165 17 2.66565e-13
vn 0.788024 -0.615644 1.25546e-15
f 196//268 188//260 187//259 195//267
v 116.673 17 -116.673
vn 0.557217 -0.615644 -0.557217
f 197//269 189//261 188//260 196//268
v 5.3313e-13 17 -165
vn 2.54012e-15 -0.615644 -0.788024
f 198//270 190//262 189//261 197//269
v -116.673 17 -116.673
vn -0.557217 -0.615644 -0.557217
f 199//271 191//263 190//262 198//270
v -165 17 -7.63057e-13
vn -0.788024 -0.615644 -3.79558e-15
f 200//272 192//264 191//263 199//271
v -116.673 17 116.673
vn -0.557217 -0.615644 0.557217
f 201//273 193//265 192//264 200//272
vn -1.07192e-15 0.804176 0.594391
vn 0.420298 0.804176 0.420298
vn 0.594391 0.804176 9.28994e-16
vn 0.420298 0.804176 -0.420298
vn 1.91516e-15 0.804176 -0.594391
vn -0.420298 0.804176 -0.420298
vn -0.594391 0.804176 -2.85844e-15
vn -0.420298 0.804176 0.420298
v 0 0 188
vn -1.04333e-15 0.804176 0.594391
f 202//282 194//274 201//281 209//289
v 132.936 0 132.936
vn 0.420298 0.804176 0.420298
f 203//283 195//275 194//274 202//282
v 188 0 3.03722e-13
vn 0.594391 0.804176 9.86163e-16
f 204//284 196//276 195//275 203//283
v 132.936 0 -132.936
vn 0.420298 0.804176 -0.420298
f 205//285 197//277 196//276 204//284
v 6.07445e-13 0 -188
vn 1.90086e-15 0.804176 -0.594391
f 206//286 198//278 197//277 205//285
v -132.936 0 -132.936
vn -0.420298 0.804176 -0.420298
f 207//287 199//279 198//278 206//286
v -188 0 -8.69423e-13
vn -0.594391 0.804176 -2.80127e-15
f 208//288 200//280 199//279 207//287
v -132.936 0 132.936
vn -0.420298 0.804176 0.420298
f 209//289 201//281 200//280 208//288
vn 0 -1 0
vn 0 -1 0
vn 0 -1 0
vn 0 -1 0
vn 0 -1 0
vn 0 -1 0
vn 0 -1 0
vn 0 -1 0
v 0 0 0
vn 0 -1 0
f 210//298 202//290 209//297
f 210//298 203//291 202//290
f 210//298 204//292 203//291
f 210//298 205//293 204//292
f 210//298 206//294 205//293
f 210//298 207//295 206//294
f 210//298 208//296 207//295
f 210//298 209//297 208//296
