g default
v -1.921711 0.642203 4.806128
v -0.770673 -2.793459 0.794854
v 0.002633 -2.809133 1.117757
v -0.000854 -3.655819 0.000947
v 1.978640 0.598929 4.819358
v 0.779472 -2.809965 0.799838
v 4.745332 0.636263 2.071913
v 1.104220 -2.794515 0.026794
v 4.758326 0.730525 -1.825429
v 0.785108 -2.773443 -0.750988
v 2.012056 0.827165 -4.592130
v 0.010749 -2.755919 -1.074255
v -1.887232 0.868582 -4.605056
v -0.765037 -2.756938 -0.755972
v -4.653911 0.831218 -1.857565
v -1.088261 -2.771069 0.019368
v -4.667978 0.738840 2.039406
v -3.570346 0.685784 3.696717
v 0.027521 0.611707 5.200483
v 1.977586 0.600779 4.818995
v 3.634803 0.607733 3.721404
v 5.139774 0.677551 0.124187
v 3.661745 0.781734 -3.482356
v 0.063884 0.855806 -4.986162
v -3.543402 0.859782 -3.507063
v -5.048373 0.789965 0.090154
v -2.765434 2.305975 1.305461
v -1.116402 2.246917 2.964037
v -2.756975 2.360714 -1.033965
v 1.222878 2.221570 2.972680
v 2.881893 2.244860 1.323937
v -1.097950 2.383987 -2.682704
v 2.890360 2.299582 -1.015486
v 1.241329 2.358640 -2.674062
v -3.881888 1.896599 0.121311
v -2.738729 1.816768 2.909876
v 0.043298 1.760883 4.072813
v 2.832288 1.757363 2.927205
v 3.996249 1.811052 0.146727
v 2.852767 1.891093 -2.639712
v 0.071549 1.949914 -3.802877
v -2.718951 1.952086 -2.659520
v -2.767290 2.304884 1.305287
vt 0.991570 0.343843
vt 0.543037 0.220953
vt 0.562717 0.299404
vt 0.443989 0.239573
vt 0.932307 0.726663
vt 0.519465 0.373138
vt 0.619811 0.976663
vt 0.438582 0.398957
vt 0.237241 0.947368
vt 0.367215 0.361470
vt 0.008434 0.656157
vt 0.347535 0.283019
vt 0.067690 0.273337
vt 0.390788 0.209285
vt 0.380191 0.023337
vt 0.471887 0.183714
vt 0.762761 0.052632
vt 0.908308 0.173287
vt 1.000000 0.538232
vt 0.932307 0.726663
vt 0.798877 0.880586
vt 0.422579 1.000000
vt 0.091696 0.826713
vt 0.000000 0.461768
vt 0.201125 0.119414
vt 0.577423 0.000000
vt 0.677769 0.324727
vt 0.814880 0.499503
vt 0.448098 0.307100
vt 0.779413 0.729146
vt 0.591913 0.879096
vt 0.260597 0.457051
vt 0.362241 0.861470
vt 0.225130 0.686693
vt 0.574179 0.179742
vt 0.830019 0.313803
vt 0.900949 0.596077
vt 0.745244 0.860725
vt 0.454369 0.953078
vt 0.198746 0.819017
vt 0.127812 0.536991
vt 0.283305 0.272095
vt 0.677769 0.324479
vn -0.378986 0.146553 0.913724
vn -0.459417 -0.777642 0.429196
vn -0.010468 -0.78678 0.617145
vn -0.010609 -0.999662 -0.023725
vn -0.010468 -0.78678 0.617145
vn -0.459417 -0.777642 0.429196
vn 0.386595 0.33432 0.85952
vn -0.010468 -0.78678 0.617145
vn 0.439464 -0.78721 0.432634
vn -0.010609 -0.999662 -0.023725
vn 0.439464 -0.78721 0.432634
vn -0.010468 -0.78678 0.617145
vn 0.91167 0.145384 0.384345
vn 0.439464 -0.78721 0.432634
vn 0.62764 -0.778337 -0.016095
vn -0.010609 -0.999662 -0.023725
vn 0.62764 -0.778337 -0.016095
vn 0.439464 -0.78721 0.432634
vn 0.914499 0.16374 -0.369973
vn 0.62764 -0.778337 -0.016095
vn 0.442781 -0.765635 -0.466636
vn -0.010609 -0.999662 -0.023725
vn 0.442781 -0.765635 -0.466636
vn 0.62764 -0.778337 -0.016095
vn 0.382192 0.182494 -0.905884
vn 0.442781 -0.765635 -0.466636
vn -0.005977 -0.75607 -0.654463
vn -0.010609 -0.999662 -0.023725
vn -0.005977 -0.75607 -0.654463
vn 0.442781 -0.765635 -0.466636
vn -0.372036 0.190263 -0.908509
vn -0.005977 -0.75607 -0.654463
vn -0.456108 -0.75611 -0.469323
vn -0.010609 -0.999662 -0.023725
vn -0.456108 -0.75611 -0.469323
vn -0.005977 -0.75607 -0.654463
vn -0.908374 0.183264 -0.37586
vn -0.456108 -0.75611 -0.469323
vn -0.644229 -0.764565 -0.020212
vn -0.010609 -0.999662 -0.023725
vn -0.644229 -0.764565 -0.020212
vn -0.456108 -0.75611 -0.469323
vn -0.010609 -0.999662 -0.023725
vn -0.459417 -0.777642 0.429196
vn -0.644229 -0.764565 -0.020212
vn -0.910972 0.165167 0.377956
vn -0.644229 -0.764565 -0.020212
vn -0.459417 -0.777642 0.429196
vn -0.910972 0.165167 0.377956
vn -0.459417 -0.777642 0.429196
vn -0.709881 -0.034142 0.703494
vn -0.459417 -0.777642 0.429196
vn -0.378986 0.146553 0.913724
vn -0.709881 -0.034142 0.703494
vn -0.378986 0.146553 0.913724
vn -0.010468 -0.78678 0.617145
vn -0.003565 -0.049185 0.998783
vn -0.010468 -0.78678 0.617145
vn 0.120376 -0.761291 0.637138
vn -0.003565 -0.049185 0.998783
vn 0.386595 0.33432 0.85952
vn 0.439464 -0.78721 0.432634
vn 0.704059 -0.049346 0.708424
vn 0.439464 -0.78721 0.432634
vn 0.91167 0.145384 0.384345
vn 0.704059 -0.049346 0.708424
vn 0.91167 0.145384 0.384345
vn 0.62764 -0.778337 -0.016095
vn 0.99936 -0.035693 0.002439
vn 0.62764 -0.778337 -0.016095
vn 0.914499 0.16374 -0.369973
vn 0.99936 -0.035693 0.002439
vn 0.914499 0.16374 -0.369973
vn 0.442781 -0.765635 -0.466636
vn 0.709429 -0.014911 -0.704619
vn 0.442781 -0.765635 -0.466636
vn 0.382192 0.182494 -0.905884
vn 0.709429 -0.014911 -0.704619
vn 0.382192 0.182494 -0.905884
vn -0.005977 -0.75607 -0.654463
vn 0.003311 -0.000822 -0.999994
vn -0.005977 -0.75607 -0.654463
vn -0.372036 0.190263 -0.908509
vn 0.003311 -0.000822 -0.999994
vn -0.372036 0.190263 -0.908509
vn -0.456108 -0.75611 -0.469323
vn -0.704597 -0.000215 -0.709607
vn -0.456108 -0.75611 -0.469323
vn -0.908374 0.183264 -0.37586
vn -0.704597 -0.000215 -0.709607
vn -0.908374 0.183264 -0.37586
vn -0.644229 -0.764565 -0.020212
vn -0.999897 -0.013849 -0.003882
vn -0.644229 -0.764565 -0.020212
vn -0.910972 0.165167 0.377956
vn -0.999897 -0.013849 -0.003882
vn -0.352051 0.911954 0.210714
vn -0.117521 0.937413 0.327789
vn -0.218892 0.973061 -0.072377
vn 0.135906 0.934515 0.328954
vn -0.218892 0.973061 -0.072377
vn -0.117521 0.937413 0.327789
vn 0.135906 0.934515 0.328954
vn 0.272664 0.95291 0.13273
vn -0.218892 0.973061 -0.072377
vn -0.218892 0.973061 -0.072377
vn 0.272664 0.95291 0.13273
vn -0.097503 0.965927 -0.239747
vn 0.316816 0.942878 -0.102995
vn -0.097503 0.965927 -0.239747
vn 0.272664 0.95291 0.13273
vn 0.316816 0.942878 -0.102995
vn 0.162572 0.925533 -0.341994
vn -0.097503 0.965927 -0.239747
vn -0.581878 0.813095 0.017159
vn -0.910972 0.165167 0.377956
vn -0.352051 0.911954 0.210714
vn -0.410356 0.801117 0.435683
vn -0.352051 0.911954 0.210714
vn -0.910972 0.165167 0.377956
vn -0.117521 0.937413 0.327789
vn -0.352051 0.911954 0.210714
vn -0.410356 0.801117 0.435683
vn -0.410356 0.801117 0.435683
vn -0.910972 0.165167 0.377956
vn -0.709881 -0.034142 0.703494
vn -0.999897 -0.013849 -0.003882
vn -0.910972 0.165167 0.377956
vn -0.581878 0.813095 0.017159
vn -0.410356 0.801117 0.435683
vn -0.378986 0.146553 0.913724
vn -0.117521 0.937413 0.327789
vn 0.006566 0.7926 0.609707
vn -0.117521 0.937413 0.327789
vn -0.378986 0.146553 0.913724
vn 0.135906 0.934515 0.328954
vn -0.117521 0.937413 0.327789
vn 0.006566 0.7926 0.609707
vn 0.006566 0.7926 0.609707
vn -0.378986 0.146553 0.913724
vn -0.003565 -0.049185 0.998783
vn -0.709881 -0.034142 0.703494
vn -0.378986 0.146553 0.913724
vn -0.410356 0.801117 0.435683
vn 0.006566 0.7926 0.609707
vn 0.386595 0.33432 0.85952
vn 0.135906 0.934515 0.328954
vn 0.424695 0.792045 0.438518
vn 0.135906 0.934515 0.328954
vn 0.386595 0.33432 0.85952
vn 0.272664 0.95291 0.13273
vn 0.135906 0.934515 0.328954
vn 0.424695 0.792045 0.438518
vn 0.424695 0.792045 0.438518
vn 0.386595 0.33432 0.85952
vn 0.704059 -0.049346 0.708424
vn -0.003565 -0.049185 0.998783
vn 0.386595 0.33432 0.85952
vn 0.006566 0.7926 0.609707
vn 0.424695 0.792045 0.438518
vn 0.91167 0.145384 0.384345
vn 0.272664 0.95291 0.13273
vn 0.599474 0.800116 0.021104
vn 0.272664 0.95291 0.13273
vn 0.91167 0.145384 0.384345
vn 0.316816 0.942878 -0.102995
vn 0.272664 0.95291 0.13273
vn 0.599474 0.800116 0.021104
vn 0.599474 0.800116 0.021104
vn 0.91167 0.145384 0.384345
vn 0.99936 -0.035693 0.002439
vn 0.704059 -0.049346 0.708424
vn 0.91167 0.145384 0.384345
vn 0.424695 0.792045 0.438518
vn 0.599474 0.800116 0.021104
vn 0.914499 0.16374 -0.369973
vn 0.316816 0.942878 -0.102995
vn 0.42787 0.812377 -0.396195
vn 0.316816 0.942878 -0.102995
vn 0.914499 0.16374 -0.369973
vn 0.162572 0.925533 -0.341994
vn 0.316816 0.942878 -0.102995
vn 0.42787 0.812377 -0.396195
vn 0.42787 0.812377 -0.396195
vn 0.914499 0.16374 -0.369973
vn 0.709429 -0.014911 -0.704619
vn 0.99936 -0.035693 0.002439
vn 0.914499 0.16374 -0.369973
vn 0.599474 0.800116 0.021104
vn 0.42787 0.812377 -0.396195
vn 0.382192 0.182494 -0.905884
vn 0.162572 0.925533 -0.341994
vn 0.010761 0.82078 -0.571143
vn 0.162572 0.925533 -0.341994
vn 0.382192 0.182494 -0.905884
vn -0.097503 0.965927 -0.239747
vn 0.162572 0.925533 -0.341994
vn 0.010761 0.82078 -0.571143
vn 0.010761 0.82078 -0.571143
vn 0.382192 0.182494 -0.905884
vn 0.003311 -0.000822 -0.999994
vn 0.709429 -0.014911 -0.704619
vn 0.382192 0.182494 -0.905884
vn 0.42787 0.812377 -0.396195
vn 0.010761 0.82078 -0.571143
vn -0.372036 0.190263 -0.908509
vn -0.097503 0.965927 -0.239747
vn -0.407778 0.821217 -0.399148
vn -0.097503 0.965927 -0.239747
vn -0.372036 0.190263 -0.908509
vn -0.218892 0.973061 -0.072377
vn -0.097503 0.965927 -0.239747
vn -0.407778 0.821217 -0.399148
vn -0.407778 0.821217 -0.399148
vn -0.372036 0.190263 -0.908509
vn -0.704597 -0.000215 -0.709607
vn 0.003311 -0.000822 -0.999994
vn -0.372036 0.190263 -0.908509
vn 0.010761 0.82078 -0.571143
vn -0.407778 0.821217 -0.399148
vn -0.908374 0.183264 -0.37586
vn -0.218892 0.973061 -0.072377
vn -0.581878 0.813095 0.017159
vn -0.218892 0.973061 -0.072377
vn -0.908374 0.183264 -0.37586
vn -0.363133 0.931509 0.020631
vn -0.218892 0.973061 -0.072377
vn -0.581878 0.813095 0.017159
vn -0.581878 0.813095 0.017159
vn -0.908374 0.183264 -0.37586
vn -0.999897 -0.013849 -0.003882
vn -0.704597 -0.000215 -0.709607
vn -0.908374 0.183264 -0.37586
vn -0.407778 0.821217 -0.399148
s off
usemtl DefaultShader
f 1/1/1 2/2/2 3/3/3
f 4/4/4 3/3/5 2/2/6
f 5/5/7 3/3/8 6/6/9
f 4/4/10 6/6/11 3/3/12
f 7/7/13 6/6/14 8/8/15
f 4/4/16 8/8/17 6/6/18
f 9/9/19 8/8/20 10/10/21
f 4/4/22 10/10/23 8/8/24
f 11/11/25 10/10/26 12/12/27
f 4/4/28 12/12/29 10/10/30
f 13/13/31 12/12/32 14/14/33
f 4/4/34 14/14/35 12/12/36
f 15/15/37 14/14/38 16/16/39
f 4/4/40 16/16/41 14/14/42
f 4/4/43 2/2/44 16/16/45
f 17/17/46 16/16/47 2/2/48
f 17/17/49 2/2/50 18/18/51
f 2/2/52 1/1/53 18/18/54
f 1/1/55 3/3/56 19/19/57
f 3/3/58 20/20/59 19/19/60
f 5/5/61 6/6/62 21/21/63
f 6/6/64 7/7/65 21/21/66
f 7/7/67 8/8/68 22/22/69
f 8/8/70 9/9/71 22/22/72
f 9/9/73 10/10/74 23/23/75
f 10/10/76 11/11/77 23/23/78
f 11/11/79 12/12/80 24/24/81
f 12/12/82 13/13/83 24/24/84
f 13/13/85 14/14/86 25/25/87
f 14/14/88 15/15/89 25/25/90
f 15/15/91 16/16/92 26/26/93
f 16/16/94 17/17/95 26/26/96
f 27/27/97 28/28/98 29/29/99
f 30/30/100 29/29/101 28/28/102
f 30/30/103 31/31/104 29/29/105
f 29/29/106 31/31/107 32/32/108
f 33/33/109 32/32/110 31/31/111
f 33/33/112 34/34/113 32/32/114
f 35/35/115 17/17/116 27/27/117
f 36/36/118 27/27/119 17/17/120
f 28/28/121 27/27/122 36/36/123
f 36/36/124 17/17/125 18/18/126
f 26/26/127 17/17/128 35/35/129
f 36/36/130 1/1/131 28/28/132
f 37/37/133 28/28/134 1/1/135
f 30/30/136 28/28/137 37/37/138
f 37/37/139 1/1/140 19/19/141
f 18/18/142 1/1/143 36/36/144
f 37/37/145 5/5/146 30/30/147
f 38/38/148 30/30/149 5/5/150
f 31/31/151 30/30/152 38/38/153
f 38/38/154 5/5/155 21/21/156
f 19/19/157 5/5/158 37/37/159
f 38/38/160 7/7/161 31/31/162
f 39/39/163 31/31/164 7/7/165
f 33/33/166 31/31/167 39/39/168
f 39/39/169 7/7/170 22/22/171
f 21/21/172 7/7/173 38/38/174
f 39/39/175 9/9/176 33/33/177
f 40/40/178 33/33/179 9/9/180
f 34/34/181 33/33/182 40/40/183
f 40/40/184 9/9/185 23/23/186
f 22/22/187 9/9/188 39/39/189
f 40/40/190 11/11/191 34/34/192
f 41/41/193 34/34/194 11/11/195
f 32/32/196 34/34/197 41/41/198
f 41/41/199 11/11/200 24/24/201
f 23/23/202 11/11/203 40/40/204
f 41/41/205 13/13/206 32/32/207
f 42/42/208 32/32/209 13/13/210
f 29/29/211 32/32/212 42/42/213
f 42/42/214 13/13/215 25/25/216
f 24/24/217 13/13/218 41/41/219
f 42/42/220 15/15/221 29/29/222
f 35/35/223 29/29/224 15/15/225
f 43/43/226 29/29/227 35/35/228
f 35/35/229 15/15/230 26/26/231
f 25/25/232 15/15/233 42/42/234
